<svg xmlns="http://www.w3.org/2000/svg" viewBox="0 0 256 256" role="img" aria-label="Unravler">
  <path fill="#ffffff" d="M30 64c18-13 42-15 72-14h36c32 1 57-4 78-20 6-5 12-1 12 7v22c0 9-7 17-18 21-32 11-68 7-105 4-31-3-56 0-75 15V64Z"/>
  <path fill="#ffffff" d="M30 106c19-14 44-15 75-13h40c31 0 52-5 72-19 6-4 11-1 11 6v23c0 9-7 17-18 20-32 11-68 7-105 4-31-3-56 0-75 15v-36Z"/>
  <path fill="#ffffff" d="M30 148c19-14 44-15 75-13h40c31 0 52-5 72-19 6-4 11-1 11 6v23c0 9-7 17-18 20-32 11-68 7-105 4-31-3-56 0-75 15v-36Z"/>
  <path fill="#ffffff" d="M30 191c19-14 44-15 75-13h40c31 0 52-5 72-19 6-4 11-1 11 6v23c0 10-8 20-21 25-32 13-69 6-105 3-30-3-54 2-72 20v-45Z"/>
</svg>
